<svg width="12" height="7" viewBox="0 0 12 7" fill="none" xmlns="http://www.w3.org/2000/svg">
<path d="M11.3562 1.35624L6.35625 6.35624C6.26145 6.45014 6.13342 6.50281 6 6.50281C5.86658 6.50281 5.73855 6.45014 5.64375 6.35624L0.643749 1.35624C0.575919 1.28395 0.529943 1.19393 0.51114 1.0966C0.492338 0.999267 0.501476 0.8986 0.537499 0.806244C0.57575 0.715244 0.640081 0.637602 0.722386 0.583103C0.804691 0.528604 0.901286 0.499686 0.999999 0.499995H11C11.0987 0.499686 11.1953 0.528604 11.2776 0.583103C11.3599 0.637602 11.4242 0.715244 11.4625 0.806244C11.4985 0.8986 11.5077 0.999267 11.4889 1.0966C11.4701 1.19393 11.4241 1.28395 11.3562 1.35624Z" fill="#E0775D"/>
</svg>
