<svg width="12" height="7" viewBox="0 0 12 7" fill="none" xmlns="http://www.w3.org/2000/svg">
<path d="M11.3563 5.64376L6.35626 0.643755C6.26146 0.549865 6.13343 0.497192 6.00001 0.497192C5.86658 0.497192 5.73855 0.549865 5.64376 0.643755L0.643756 5.64376C0.575927 5.71605 0.529951 5.80607 0.511148 5.9034C0.492345 6.00073 0.501484 6.1014 0.537506 6.19376C0.575757 6.28476 0.640089 6.3624 0.722394 6.4169C0.804699 6.4714 0.901294 6.50031 1.00001 6.50001H11C11.0987 6.50031 11.1953 6.4714 11.2776 6.4169C11.3599 6.3624 11.4243 6.28476 11.4625 6.19376C11.4985 6.1014 11.5077 6.00073 11.4889 5.9034C11.4701 5.80607 11.4241 5.71605 11.3563 5.64376Z" fill="#1A936B"/>
</svg>
