<svg width="24" height="24" viewBox="0 0 24 24" fill="none" xmlns="http://www.w3.org/2000/svg">
<path d="M9.74998 5.85001H6.74998C6.25292 5.85001 5.84998 6.25295 5.84998 6.75001V9.75001C5.84998 10.2471 6.25292 10.65 6.74998 10.65H9.74998C10.247 10.65 10.65 10.2471 10.65 9.75001V6.75001C10.65 6.25295 10.247 5.85001 9.74998 5.85001Z" stroke="#E9E9E9" stroke-width="1.4"/>
<path d="M9.74998 13.35H6.74998C6.25292 13.35 5.84998 13.7529 5.84998 14.25V17.25C5.84998 17.7471 6.25292 18.15 6.74998 18.15H9.74998C10.247 18.15 10.65 17.7471 10.65 17.25V14.25C10.65 13.7529 10.247 13.35 9.74998 13.35Z" stroke="#E9E9E9" stroke-width="1.4"/>
<path d="M17.25 13.35H14.25C13.7529 13.35 13.35 13.7529 13.35 14.25V17.25C13.35 17.7471 13.7529 18.15 14.25 18.15H17.25C17.747 18.15 18.15 17.7471 18.15 17.25V14.25C18.15 13.7529 17.747 13.35 17.25 13.35Z" stroke="#E9E9E9" stroke-width="1.4"/>
<path d="M17.25 5.85001H14.25C13.7529 5.85001 13.35 6.25295 13.35 6.75001V9.75001C13.35 10.2471 13.7529 10.65 14.25 10.65H17.25C17.747 10.65 18.15 10.2471 18.15 9.75001V6.75001C18.15 6.25295 17.747 5.85001 17.25 5.85001Z" stroke="#E9E9E9" stroke-width="1.4"/>
</svg>
