<svg width="24" height="24" viewBox="0 0 24 24" fill="none" xmlns="http://www.w3.org/2000/svg">
<path d="M18.6 7.5H5.39999C5.06862 7.5 4.79999 7.76863 4.79999 8.1V17.7C4.79999 18.0314 5.06862 18.3 5.39999 18.3H18.6C18.9314 18.3 19.2 18.0314 19.2 17.7V8.1C19.2 7.76863 18.9314 7.5 18.6 7.5Z" stroke="#7A797A" stroke-width="1.5" stroke-linecap="round" stroke-linejoin="round"/>
<path d="M15 7.5V6C15 5.68174 14.8736 5.37652 14.6485 5.15147C14.4235 4.92643 14.1183 4.8 13.8 4.8H10.2C9.88174 4.8 9.57652 4.92643 9.35147 5.15147C9.12643 5.37652 9 5.68174 9 6V7.5" stroke="#7A797A" stroke-width="1.5" stroke-linecap="round" stroke-linejoin="round"/>
<path d="M19.2 11.5726C17.0117 12.8381 14.5279 13.5031 12 13.5001C9.47163 13.5066 6.98689 12.8415 4.79999 11.5726" stroke="#7A797A" stroke-width="1.5" stroke-linecap="round" stroke-linejoin="round"/>
<path d="M11.1 10.8H12.9" stroke="#7A797A" stroke-width="1.5" stroke-linecap="round" stroke-linejoin="round"/>
</svg>
