<svg width="24" height="24" viewBox="0 0 24 24" fill="none" xmlns="http://www.w3.org/2000/svg">
<path d="M6 12.87V18C6 18.1591 6.06321 18.3117 6.17574 18.4242C6.28826 18.5368 6.44087 18.6 6.6 18.6H17.4C17.5591 18.6 17.7117 18.5368 17.8243 18.4242C17.9368 18.3117 18 18.1591 18 18V12.87" stroke="#7A797A" stroke-width="1.5" stroke-linecap="round" stroke-linejoin="round"/>
<path d="M6.44999 5.39999H17.55C17.6802 5.40107 17.8065 5.44392 17.9105 5.52223C18.0145 5.60055 18.0905 5.71018 18.1275 5.83499L19.2 9.59999H4.79999L5.87249 5.83499C5.90944 5.71018 5.98551 5.60055 6.08948 5.52223C6.19345 5.44392 6.31983 5.40107 6.44999 5.39999V5.39999Z" stroke="#7A797A" stroke-width="1.5" stroke-linecap="round" stroke-linejoin="round"/>
<path d="M9.59999 9.60001V10.8M9.59999 10.8C9.59999 11.4365 9.34713 12.047 8.89704 12.4971C8.44696 12.9471 7.83651 13.2 7.19999 13.2C6.56347 13.2 5.95302 12.9471 5.50293 12.4971C5.05284 12.047 4.79999 11.4365 4.79999 10.8V9.60001M9.59999 10.8C9.59999 11.4365 9.85284 12.047 10.3029 12.4971C10.753 12.9471 11.3635 13.2 12 13.2C12.6365 13.2 13.247 12.9471 13.697 12.4971C14.1471 12.047 14.4 11.4365 14.4 10.8M14.4 9.60001V10.8M14.4 10.8C14.4 11.4365 14.6528 12.047 15.1029 12.4971C15.553 12.9471 16.1635 13.2 16.8 13.2C17.4365 13.2 18.047 12.9471 18.497 12.4971C18.9471 12.047 19.2 11.4365 19.2 10.8V9.60001" stroke="#7A797A" stroke-width="1.5" stroke-linecap="round" stroke-linejoin="round"/>
</svg>
