<svg width="24" height="24" viewBox="0 0 24 24" fill="none" xmlns="http://www.w3.org/2000/svg">
<path d="M12 15.3C13.8226 15.3 15.3 13.8225 15.3 12C15.3 10.1775 13.8226 8.7 12 8.7C10.1775 8.7 8.70001 10.1775 8.70001 12C8.70001 13.8225 10.1775 15.3 12 15.3Z" stroke="#7A797A" stroke-width="1.5" stroke-linecap="round" stroke-linejoin="round"/>
<path d="M17.2041 8.45238C17.3847 8.71089 17.5428 8.98439 17.6766 9.26988L19.6191 10.3499C19.8617 11.4362 19.8643 12.5624 19.6266 13.6499L17.6766 14.7299C17.5428 15.0154 17.3847 15.2889 17.2041 15.5474L17.2416 17.7749C16.4184 18.5251 15.4441 19.0902 14.3841 19.4324L12.4716 18.2849C12.157 18.3074 11.8412 18.3074 11.5266 18.2849L9.62164 19.4249C8.55837 19.089 7.58081 18.526 6.75664 17.7749L6.79414 15.5549C6.6151 15.2928 6.4571 15.0169 6.32164 14.7299L4.37914 13.6499C4.13659 12.5635 4.13403 11.4373 4.37164 10.3499L6.32164 9.26988C6.4555 8.98439 6.61358 8.71089 6.79414 8.45238L6.75664 6.22488C7.57988 5.47471 8.55423 4.90953 9.61414 4.56738L11.5266 5.71488C11.8412 5.69238 12.157 5.69238 12.4716 5.71488L14.3766 4.57488C15.4399 4.9108 16.4175 5.4738 17.2416 6.22488L17.2041 8.45238Z" stroke="#7A797A" stroke-width="1.5" stroke-linecap="round" stroke-linejoin="round"/>
</svg>
